<svg xmlns="http://www.w3.org/2000/svg" version="1.1" id="bgtfzwmxfz-Layer_1" x="0" y="0" viewBox="0 0 440 107.1" style="enable-background:new 0 0 440 107.1" xml:space="preserve"><style>.bgtfzwmxfz-st0{fill:#066}.bgtfzwmxfz-st3{fill:#099}</style><path class="bgtfzwmxfz-st0" d="M220 47.8h-1.9v19.4h1.9V47.8zm-58.5 19.4h1.9V55.9c0-5.4-3-8.2-7.7-8.2-3.7 0-6.6 1.8-7.8 4.7-1-3.1-3.6-4.7-7.1-4.7-3.5 0-6.2 1.6-7.4 4.3v-4.1h-1.8v19.4h1.8V56.9c0-4.6 2.7-7.5 7.1-7.5 3.8 0 6 2.3 6 6.7v11.2h1.9V56.9c0-4.6 2.7-7.5 7.1-7.5 3.8 0 6 2.3 6 6.7v11.1zm24.1-10.7h-14.8c.3-4.2 3.3-7.2 7.4-7.2 4-.1 7.3 3.2 7.4 7.2m1.7 1.4v-.5c0-5.8-3.9-9.8-9.2-9.8s-9.3 4.1-9.3 9.8 4.1 9.8 10 9.8c2.8.1 5.5-1.1 7.3-3.2l-1-1.1c-3.1 3.4-8.3 3.6-11.7.5-1.6-1.4-2.5-3.4-2.7-5.6l16.6.1zm21.2-.4c0 4.9-3.3 8.2-7.8 8.2s-7.8-3.3-7.8-8.2 3.3-8.2 7.8-8.2c4.4 0 7.8 3.3 7.8 8.2m0 9.7h1.8V39.7h-1.8v12.7c-1.5-2.9-4.6-4.7-7.9-4.6-5.5 0-9.6 4-9.6 9.8s4.1 9.8 9.6 9.8c3.3.1 6.4-1.7 7.9-4.7v4.5zm12.1-25.6c0-.8-.7-1.5-1.5-1.5s-1.5.7-1.5 1.5.7 1.5 1.5 1.5 1.5-.6 1.5-1.5m7 15.9c0-4.9 3.3-8.2 7.9-8.2 2.4-.1 4.6 1 6 2.9l1.4-1c-1.7-2.4-4.4-3.7-7.3-3.6-5.4 0-9.8 4.4-9.8 9.8s4.4 9.8 9.8 9.8c2.9.1 5.6-1.2 7.3-3.6l-1.4-1c-1.4 1.9-3.6 3-6 2.9-4.6 0-7.9-3.3-7.9-8.2m32.9 4.3c-1 2.8-3.7 4.5-6.6 4.3-3.4 0-5.4-1.6-5.4-4.1 0-2.2 1.4-3.9 5.4-3.9h6.6v3.7zm.1 5.7h1.8V54.9c0-4.8-2.7-7.2-7.5-7.2-2.8 0-5.6.9-7.8 2.7l1 1.3c1.9-1.6 4.2-2.5 6.7-2.4 3.8 0 5.7 2 5.7 5.5v1.6h-6.6c-5.4 0-7.2 2.5-7.2 5.4 0 3.3 2.6 5.5 7 5.5 3.4 0 5.7-1.4 7-3.6l-.1 3.6zm9.4 0h1.8V39.7H270v27.6zm28-17.7h.5v-1.9c-3.6 0-6.2 1.6-7.4 4.4v-4.2h-1.8v19.4h1.8V57.1c0-4.8 2.6-7.6 6.9-7.5m20.4 6.9h-14.8c.3-4.2 3.3-7.2 7.4-7.2 4 0 7.4 3.2 7.4 7.2m1.8 1.5v-.5c0-5.8-3.9-9.8-9.2-9.8s-9.3 4.1-9.3 9.8 4.1 9.8 10 9.8c2.8.1 5.5-1.1 7.3-3.2l-1-1.1c-3.1 3.4-8.3 3.6-11.7.6-1.6-1.4-2.5-3.4-2.7-5.6h16.6zm5.5-5.1c0-2.1 1.7-3.6 5.5-3.6 2.1 0 4.1.6 5.8 1.7l.9-1.5c-2-1.3-4.3-1.9-6.6-1.9-4.9 0-7.3 2.4-7.3 5.3 0 7.6 12.8 3.4 12.8 9.1 0 2.2-1.6 3.6-5.7 3.6-2.5 0-5-.8-7-2.3l-.9 1.5c1.5 1.4 4.6 2.5 7.8 2.5 4.9 0 7.6-2.2 7.6-5.3-.1-7.4-12.9-3.2-12.9-9.1m32.6 3.6h-14.8c.3-4.2 3.3-7.2 7.4-7.2 4 0 7.3 3.2 7.4 7.2m1.8 1.4v-.5c0-5.8-3.9-9.8-9.2-9.8s-9.3 4.1-9.3 9.8 4.1 9.8 10 9.8c2.8.1 5.5-1.1 7.3-3.2l-1-1.1c-3.1 3.4-8.3 3.6-11.7.5-1.6-1.4-2.5-3.4-2.7-5.6l16.6.1zm17.9 3.6c-1 2.8-3.7 4.5-6.6 4.3-3.4 0-5.4-1.6-5.4-4.1 0-2.2 1.4-3.9 5.4-3.9h6.6v3.7zm.1 5.7h1.8V54.9c0-4.8-2.7-7.2-7.4-7.2-2.8 0-5.6.9-7.8 2.7l.9 1.3c1.9-1.6 4.2-2.5 6.7-2.4 3.8 0 5.7 2 5.7 5.5v1.6h-6.6c-5.4 0-7.2 2.5-7.2 5.4 0 3.3 2.6 5.5 7 5.5 3.4 0 5.8-1.4 7-3.6v3.5zm18.1-17.8h.4v-1.8c-3.6 0-6.2 1.6-7.4 4.4v-4.2h-1.8v19.4h1.9V57.1c0-4.8 2.6-7.6 6.9-7.7m5.6 8.1c0-4.9 3.3-8.2 7.9-8.2 2.4-.1 4.6 1 6 2.9l1.4-1c-1.7-2.4-4.4-3.7-7.3-3.6-5.4 0-9.8 4.4-9.8 9.8s4.4 9.8 9.8 9.8c2.9.1 5.6-1.2 7.3-3.6l-1.4-1c-1.4 1.9-3.6 3-6 2.9-4.6 0-7.9-3.3-7.9-8.2m38.2 10V55.9c0-5.4-3.2-8.2-7.8-8.2-3.6 0-6.3 1.6-7.6 4.2V39.7h-1.9v27.5h1.9V56.9c0-4.6 2.8-7.5 7.3-7.5 3.9 0 6.3 2.3 6.3 6.7v11.2h1.8z"/><path d="M81.9 83.2h1v-1h-1v1" style="fill:#0c504b"/><path class="bgtfzwmxfz-st0" d="M79.2 69.9c-.2-.3-.4-.6-.6-1-1.2-2-2.7-3.9-4.3-5.5-5-5-11.7-8.1-18.8-8.5 0-.4-.1-.7-.1-1.1s0-.7.1-1.1c3.5-.2 6.9-1.1 10-2.5 3.3-1.5 6.3-3.5 8.8-6 1.7-1.7 3.1-3.5 4.3-5.5.2-.3.4-.6.6-1 2.1-3.8 3.3-8 3.6-12.3h1.1c5.9 0 11.6 1.8 16.5 5.2l-.9-1.8c-5-3.1-10.8-4.6-16.6-4.4v-1.1c0-5.5-1.5-10.9-4.4-15.5l-1.8-.9c3.5 4.8 5.4 10.5 5.4 16.4 0 .4 0 .7-.1 1.1-4.3.3-8.6 1.5-12.4 3.6-.3.2-.6.4-1 .6-2 1.2-3.9 2.7-5.5 4.3-5 5-8.1 11.7-8.5 18.8h-2.2c-.6-9.5-5.9-18.2-14.1-23.1-.3-.2-.6-.4-1-.6-3.8-2.1-8-3.4-12.3-3.6 0-.4-.1-.8-.1-1.1 0-5.9 1.9-11.6 5.3-16.4l-1.8.9c-2.9 4.6-4.4 10-4.4 15.5v1.1c-5.8-.2-11.6 1.3-16.6 4.3l-.9 1.8c4.8-3.4 10.6-5.2 16.4-5.2H24c.3 4.3 1.5 8.5 3.6 12.3.2.3.4.6.6 1 4.9 8.2 13.6 13.5 23.2 14.1 0 .4.1.7.1 1.1s0 .8-.1 1.1c-7.1.5-13.8 3.5-18.8 8.5-1.7 1.7-3.1 3.5-4.4 5.5-.2.3-.4.6-.6 1-2.1 3.8-3.3 8-3.6 12.3-6.3.3-12.4-1.6-17.6-5.2l.9 1.8c4.7 2.9 10 4.4 15.5 4.4h1.1v1.1c0 5.5 1.5 10.8 4.4 15.5l1.8.9c-3.4-4.8-5.2-10.5-5.2-16.4 0-.4 0-.8.1-1.1 4.3-.3 8.5-1.5 12.3-3.6.3-.2.6-.4 1-.6 2-1.2 3.9-2.7 5.5-4.3 5-5 8-11.7 8.5-18.8h2.2C55 63 58 69.7 63 74.7c1.7 1.6 3.5 3.1 5.5 4.3.3.2.6.4 1 .6 3.8 2.1 8 3.3 12.3 3.6 0 .4.1.7.1 1.1 0 5.9-1.8 11.6-5.2 16.4l1.8-.9c2.9-4.6 4.4-10 4.4-15.5v-1.1H84c5.5 0 10.9-1.5 15.5-4.4l.9-1.8c-5.1 3.6-11.3 5.4-17.6 5.2-.2-4.3-1.4-8.5-3.6-12.3zM58 42c1.4-3.1 3.4-5.9 5.8-8.3 1.7-1.7 3.7-3.2 5.8-4.4.3-.2.6-.4.9-.5 3.5-1.9 7.4-3 11.4-3.3-.3 4-1.4 7.8-3.2 11.3l-.6.9c-4.7 8.1-13.1 13.4-22.5 14 .2-3.4 1-6.7 2.4-9.7zm-24.7 1.5c-1.7-1.7-3.2-3.7-4.5-5.8l-.6-.9c-1.9-3.5-3-7.4-3.2-11.3 4 .3 7.8 1.4 11.4 3.3.3.2.6.4.9.5 2.1 1.2 4.1 2.7 5.8 4.4 4.8 4.8 7.8 11.2 8.3 18-6.9-.5-13.3-3.4-18.1-8.2zM43 73.9c-1.7 1.7-3.7 3.2-5.8 4.4-.3.2-.6.4-.9.5-3.5 1.9-7.4 3-11.4 3.3.3-4 1.4-7.9 3.3-11.4.2-.3.4-.6.6-1 1.2-2.1 2.7-4.1 4.5-5.8 4.8-4.8 11.3-7.8 18.1-8.2-.5 7-3.4 13.4-8.4 18.2zm11.5-19h-2.1v-2.2h2.2c0 .4-.1.7-.1 1.1v1.1zm16 24c-.3-.2-.6-.4-.9-.5-2.1-1.2-4.1-2.7-5.8-4.4-4.8-4.8-7.8-11.2-8.3-18.1 9.4.6 17.8 5.9 22.5 14 .2.3.4.6.6 1 1.9 3.5 3 7.4 3.2 11.3-3.9-.3-7.8-1.4-11.3-3.3z"/><path d="M278.8 79.9c-.8 0-1.5.7-1.5 1.5s.7 1.5 1.5 1.5 1.5-.7 1.5-1.5-.7-1.5-1.5-1.5z" style="fill:#228791"/><path class="bgtfzwmxfz-st3" d="M279.3.4c-.8 0-1.5.7-1.5 1.5s.7 1.5 1.5 1.5 1.5-.7 1.5-1.5-.7-1.5-1.5-1.5zM168.7 24.1v3.4h1.8V15.2c0-4.8-2.7-7.2-7.5-7.2-2.8 0-5.6.9-7.7 2.7l.9 1.3c1.9-1.6 4.2-2.5 6.7-2.4 3.8 0 5.8 2 5.8 5.5v1.6H162c-5.4 0-7.2 2.5-7.2 5.4 0 3.3 2.6 5.5 7 5.5 3.4.1 5.7-1.3 6.9-3.5zm-6.7 2c-3.4 0-5.4-1.6-5.4-4.1 0-2.2 1.4-3.9 5.4-3.9h6.6v3.6c-.9 2.8-3.6 4.6-6.6 4.4zM178.2 0h1.8v27.5h-1.8zM295.9 27.7c2.8.1 5.5-1.1 7.3-3.2l-1.1-1.2c-3.1 3.4-8.3 3.6-11.7.5-1.6-1.4-2.5-3.4-2.7-5.5h16.6v-.5c0-5.8-3.9-9.8-9.2-9.8s-9.3 4.1-9.3 9.8 4.2 9.9 10.1 9.9zm-.7-18.1c4-.1 7.3 3.2 7.4 7.2h-14.8c.3-4.2 3.3-7.2 7.4-7.2zM197 9.7c3.9 0 6.3 2.3 6.3 6.7v11.2h1.8V16.2c0-5.4-3.2-8.2-7.8-8.2-3.6 0-6.3 1.6-7.6 4.2V0h-1.9v27.5h1.8V17.2c.1-4.6 2.9-7.5 7.4-7.5zM139 27.7c3.3.1 6.4-1.7 7.9-4.7v4.6h1.8V0h-1.9v12.6c-1.5-2.9-4.6-4.7-7.9-4.6-5.5 0-9.6 4-9.6 9.8s4.2 9.9 9.7 9.9zm.1-18c4.4 0 7.8 3.3 7.8 8.2s-3.3 8.2-7.8 8.2-7.8-3.3-7.8-8.2 3.3-8.2 7.8-8.2zM251 23.4v4.1h1.8V8.2h-1.9v10.3c0 4.6-2.7 7.5-7.1 7.5-4 0-6.4-2.3-6.4-6.7V8.2h-1.9v11.3c0 5.4 3.2 8.2 8.1 8.2 3.1.1 6-1.6 7.4-4.3zM260.3 13.3c0-2.1 1.7-3.6 5.5-3.6 2.1 0 4.1.6 5.8 1.7l.9-1.5c-2-1.3-4.3-1.9-6.6-1.9-4.9 0-7.3 2.4-7.3 5.3 0 7.6 12.8 3.4 12.8 9.1 0 2.2-1.6 3.6-5.7 3.6-2.5 0-5-.8-7-2.3l-.9 1.5c1.5 1.4 4.6 2.5 7.8 2.5 4.9 0 7.6-2.1 7.6-5.3-.1-7.4-12.9-3.3-12.9-9.1zM230 17.8c0-5.3-4.3-9.7-9.7-9.7-5.3 0-9.7 4.3-9.7 9.7 0 5.3 4.3 9.7 9.7 9.7s9.7-4.3 9.7-9.7zm-17.4 0c0-4.9 3.3-8.2 7.8-8.2s7.8 3.3 7.8 8.2-3.3 8.2-7.8 8.2-7.8-3.3-7.8-8.2zM278.3 8.2h1.8v19.4h-1.8zM181.8 97.9c0 4.6-2.7 7.5-7.1 7.5-4 0-6.4-2.3-6.4-6.7V87.6h-1.9v11.3c0 5.4 3.2 8.2 8.1 8.2 3.1.2 6-1.5 7.3-4.3v4.2h1.8V87.6h-1.9l.1 10.3zM231.8 92.1c-1.5-2.9-4.5-4.7-7.8-4.7-5.5 0-9.6 4-9.6 9.8 0 5.8 4.1 9.8 9.6 9.8 3.3.1 6.4-1.7 7.9-4.7v4.7h1.8V79.5h-1.9v12.6zm-7.9 13.4c-4.5 0-7.8-3.3-7.8-8.2s3.3-8.2 7.8-8.2 7.8 3.3 7.8 8.2c.1 4.9-3.2 8.2-7.8 8.2zM320 87.4c-3.7 0-6.4 1.6-7.7 4.3v-4.2h-1.8V107h1.8V96.7c0-4.6 2.8-7.5 7.3-7.5 3.9 0 6.3 2.3 6.3 6.7V107h1.9V95.7c.1-5.4-3.1-8.3-7.8-8.3zM248 87.4c-2.8 0-5.6.9-7.8 2.7l.9 1.3c1.9-1.6 4.2-2.5 6.7-2.4 3.8 0 5.7 2 5.7 5.5v1.6H247c-5.4 0-7.2 2.5-7.2 5.4 0 3.3 2.6 5.5 7 5.5 3.4 0 5.7-1.4 7-3.6v3.5h1.8V94.7c-.1-4.8-2.8-7.3-7.6-7.3zm5.6 13.8c-1 2.8-3.7 4.5-6.6 4.3-3.4 0-5.4-1.6-5.4-4.1 0-2.2 1.4-3.9 5.4-3.9h6.6v3.7zM200.9 87.4c-3.7 0-6.4 1.6-7.7 4.3v-4.2h-1.8V107h1.9V96.7c0-4.6 2.8-7.5 7.3-7.5 3.9 0 6.3 2.3 6.3 6.7V107h1.9V95.7c0-5.4-3.1-8.3-7.9-8.3zM277.9 87.6h1.8V107h-1.8zM268.9 105.5c-2.4 0-3.6-1.4-3.6-3.9V89.2h6.1v-1.6h-6.1v-4.2h-1.9v4.2h-3.6v1.6h3.6v12.6c0 3.3 1.9 5.3 5.3 5.3 1.4 0 2.8-.5 3.9-1.4l-.8-1.3c-.7.8-1.8 1.1-2.9 1.1zM131.9 84.7v2.9h-3.6v1.6h3.6V107h1.8V89.2h6.2v-1.6h-6.2v-2.8c0-2.6 1.2-3.9 3.6-3.9 1.1 0 2.2.4 3 1.1l.7-1.4c-1.1-.9-2.4-1.3-3.8-1.3-3.4 0-5.3 2.1-5.3 5.4zM151.2 87.4c-5.4-.1-9.8 4.3-9.9 9.7-.1 5.4 4.3 9.8 9.7 9.9 5.4.1 9.8-4.3 9.9-9.7v-.1c.2-5.2-3.9-9.6-9.1-9.8h-.6zm0 18c-4.5 0-7.8-3.3-7.8-8.2 0-4.9 3.3-8.2 7.8-8.2s7.8 3.3 7.8 8.2c0 4.9-3.3 8.3-7.8 8.2zM295.1 87.4c-5.4-.1-9.8 4.3-9.9 9.7-.1 5.4 4.3 9.8 9.7 9.9s9.8-4.3 9.9-9.7v-.1c.2-5.2-3.9-9.6-9.1-9.8h-.6zm0 18c-4.4 0-7.8-3.3-7.8-8.2 0-4.9 3.3-8.2 7.8-8.2s7.8 3.3 7.8 8.2c0 4.9-3.4 8.3-7.8 8.2zM32.6 33c1.4-1.4 3-2.7 4.7-3.8-.3-.2-.6-.4-.9-.5-1.6 1.1-3.1 2.3-4.4 3.7-1.4 1.4-2.6 2.8-3.7 4.4l.6.9c1-1.7 2.3-3.3 3.7-4.7z"/><path class="bgtfzwmxfz-st3" d="M102.1 31.8c-.3-.6-.6-1.3-.9-1.9C96 19.6 87.6 11.3 77.4 6.1c-.6-.3-1.3-.6-1.9-.9-14-6.4-30.1-6.4-44.1 0-.6.3-1.3.6-1.9.9A53.71 53.71 0 0 0 5.7 29.9c-.3.6-.6 1.3-.9 1.9-6.4 14-6.4 30.1 0 44 .3.6.6 1.3.9 1.9a53.71 53.71 0 0 0 23.8 23.8c.6.3 1.3.6 1.9.9 14 6.4 30.1 6.4 44.1 0 .6-.3 1.3-.6 1.9-.9a53.71 53.71 0 0 0 23.8-23.8c.3-.6.6-1.2.9-1.9 6.3-14 6.3-30.1 0-44zM100.4 77l-.9 1.8c-4.8 8.8-12.1 16.1-21 20.9l-1.8.9c-14.7 7.3-31.9 7.3-46.6 0l-1.8-.9c-8.8-4.8-16.1-12.1-21-20.9L6.4 77c-7.3-14.6-7.3-31.9 0-46.5l.9-1.8c4.8-8.8 12.1-16.1 21-21l1.8-.9C44.8-.5 62-.5 76.7 6.8l1.8.9c8.8 4.8 16.1 12.1 21 20.9l.9 1.8c7.3 14.7 7.3 32 0 46.6z"/><path class="bgtfzwmxfz-st3" d="m28.8 69.9-.6.9c1.1 1.6 2.3 3.1 3.7 4.4 1.4 1.4 2.8 2.6 4.4 3.7.3-.2.6-.4.9-.5-1.7-1.1-3.2-2.4-4.7-3.8-1.3-1.4-2.6-3-3.7-4.7zM74.3 74.6c-1.4 1.4-3 2.7-4.7 3.8.3.2.6.4.9.5 1.6-1.1 3.1-2.3 4.4-3.7 1.4-1.4 2.6-2.8 3.7-4.4l-.6-.9c-1 1.7-2.3 3.3-3.7 4.7zM27.7 37.6c-6.2 9.9-6.2 22.4 0 32.3.2-.3.4-.6.6-1-5.7-9.3-5.7-21 0-30.3-.3-.3-.5-.6-.6-1zM53.4 24.4c5.4 0 10.6 1.5 15.2 4.2.3-.2.6-.4 1-.6-9.9-6.2-22.4-6.2-32.3 0l1 .6c4.6-2.7 9.8-4.2 15.1-4.2zM38.2 78.9c-.3.2-.6.4-1 .6 9.9 6.2 22.4 6.2 32.3 0-.3-.2-.6-.4-1-.6-9.3 5.6-20.9 5.6-30.3 0zM70.5 28.7c-.3.2-.6.4-.9.5 3.4 2.2 6.3 5.1 8.5 8.5l.6-.9c-2.2-3.2-4.9-6-8.2-8.1zM78.6 38.6c5.7 9.3 5.7 21 0 30.3.2.3.4.6.6 1 6.2-9.9 6.2-22.4 0-32.3-.2.4-.4.7-.6 1z"/></svg>